<?xml version="1.0" encoding="utf-8"?>
<!-- Generator: Adobe Illustrator 14.0.0, SVG Export Plug-In . SVG Version: 6.00 Build 43363)  -->
<!DOCTYPE svg PUBLIC "-//W3C//DTD SVG 1.1//EN" "http://www.w3.org/Graphics/SVG/1.1/DTD/svg11.dtd">
<svg version="1.1" id="Livello_1" xmlns="http://www.w3.org/2000/svg" xmlns:xlink="http://www.w3.org/1999/xlink" x="0px" y="0px"
	 width="105.689px" height="20.566px" viewBox="-0.31 0 105.689 20.566" enable-background="new -0.31 0 105.689 20.566"
	 xml:space="preserve">
<g>
	<path fill="#231F20" d="M24.073,6.34h2.69c1.302,0,2.218,0.913,2.218,2.267s-0.916,2.297-2.218,2.297h-1.424v2.403h-1.266V6.34z
		 M26.527,9.804c0.734,0,1.166-0.472,1.166-1.198c0-0.717-0.432-1.178-1.146-1.178h-1.208v2.375H26.527z"/>
	<path fill="#231F20" d="M33.217,6.222c2.052,0,3.603,1.56,3.603,3.551c0,2.052-1.551,3.651-3.603,3.651
		c-2.05,0-3.601-1.6-3.601-3.651C29.616,7.782,31.167,6.222,33.217,6.222 M33.217,12.267c1.276,0,2.297-1.061,2.297-2.494
		c0-1.373-1.021-2.394-2.297-2.394c-1.274,0-2.296,1.021-2.296,2.394C30.921,11.207,31.943,12.267,33.217,12.267"/>
	<polygon fill="#231F20" points="38.103,6.34 39.368,6.34 39.368,12.217 42.383,12.217 42.383,13.306 38.103,13.306 	"/>
	<rect x="43.392" y="6.34" fill="#231F20" width="1.265" height="6.967"/>
	<path fill="#231F20" d="M49.887,11.521h-2.442l-0.59,1.785H45.55l2.452-6.967h1.327l2.452,6.967h-1.307L49.887,11.521z
		 M48.662,7.546c0,0-0.157,0.687-0.295,1.08l-0.621,1.866h1.825l-0.617-1.866c-0.128-0.394-0.273-1.08-0.273-1.08H48.662z"/>
	<path fill="#231F20" d="M53.027,6.34h1.354l1.364,3.446c0.156,0.412,0.354,1.019,0.354,1.019h0.02c0,0,0.188-0.607,0.342-1.019
		l1.364-3.446h1.355l0.557,6.967h-1.256l-0.294-3.895c-0.028-0.462-0.009-1.08-0.009-1.08h-0.02c0,0-0.204,0.677-0.374,1.08
		l-1.128,2.699h-1.109l-1.116-2.699c-0.168-0.402-0.383-1.089-0.383-1.089H54.03c0,0,0.019,0.627-0.013,1.089l-0.296,3.895h-1.265
		L53.027,6.34z"/>
	<path fill="#231F20" d="M61.289,6.34h2.489c1.259,0,2.151,0.649,2.151,1.796c0,0.647-0.314,1.207-0.845,1.491v0.02
		c0.764,0.226,1.129,0.932,1.129,1.638c0,1.394-1.12,2.021-2.404,2.021h-2.521V6.34z M63.779,9.185c0.552,0,0.865-0.392,0.865-0.893
		c0-0.501-0.295-0.863-0.883-0.863h-1.207v1.756H63.779z M63.907,12.217c0.646,0,1.011-0.422,1.011-1.01c0-0.58-0.373-1-1.011-1
		h-1.354v2.01H63.907z"/>
	<path fill="#231F20" d="M67.488,6.34h1.266v4.465c0,0.932,0.609,1.462,1.541,1.462c0.933,0,1.552-0.53,1.552-1.472V6.34h1.266
		v4.465c0,1.56-1.13,2.62-2.806,2.62c-1.689,0-2.818-1.061-2.818-2.62V6.34z"/>
	<polygon fill="#231F20" points="74.78,6.34 76.045,6.34 76.045,12.217 79.057,12.217 79.057,13.306 74.78,13.306 	"/>
	<path fill="#231F20" d="M83.756,11.521h-2.442l-0.59,1.785h-1.306l2.454-6.967h1.324l2.451,6.967h-1.302L83.756,11.521z
		 M82.53,7.546c0,0-0.156,0.687-0.293,1.08l-0.62,1.866h1.825l-0.619-1.866c-0.127-0.394-0.274-1.08-0.274-1.08H82.53z"/>
	<path fill="#231F20" d="M86.542,6.34h1.265l2.64,4.024c0.267,0.401,0.582,1.079,0.582,1.079h0.019c0,0-0.07-0.667-0.07-1.079V6.34
		h1.258v6.967h-1.258l-2.64-4.013c-0.265-0.402-0.579-1.079-0.579-1.079H87.74c0,0,0.067,0.667,0.067,1.079v4.013h-1.265V6.34z"/>
	<path fill="#231F20" d="M93.488,12.491l3.091-4.433c0.276-0.402,0.511-0.629,0.511-0.629V7.409c0,0-0.196,0.019-0.52,0.019h-2.926
		V6.34h5.036v0.806l-3.093,4.445c-0.274,0.401-0.51,0.626-0.51,0.626v0.021c0,0,0.197-0.021,0.521-0.021h3.121v1.09h-5.232V12.491z"
		/>
	<path fill="#231F20" d="M103.485,11.521h-2.442l-0.589,1.785H99.15l2.452-6.967h1.326l2.451,6.967h-1.304L103.485,11.521z
		 M102.26,7.546c0,0-0.158,0.687-0.294,1.08l-0.618,1.866h1.825l-0.619-1.866c-0.129-0.394-0.274-1.08-0.274-1.08H102.26z"/>
	<path fill="#231F20" d="M13.145,1.252L6.486,3.457l0.219-0.894c0,0,0.158-0.78-0.125-1.151C6.332,1.087,5.948,0.856,5.756,0.93
		C5.488,1.033,5.294,2.091,5.294,2.091L4.833,4.083L1.521,5.151c0,0-0.685,0.209-1.053,0.546c-0.491,0.448-0.824,1.145-0.772,1.316
		c0.071,0.244,1.379-0.176,1.379-0.176l3.403-1.125l-2.08,9.357c0,0-0.217,0.864-0.041,1.414c0.114,0.339,0.297,0.854,0.799,0.897
		c0.173,0.015,0.391-0.396,0.434-0.563C3.63,16.673,6.316,8.942,8.331,6.549c2.506-2.975,5.093-3.713,5.093-3.713
		s-4.144,3.386-5.773,9.485c-0.469,1.748-0.688,4.078-0.768,5.308c-0.079,1.173,0.083,1.287,0.287,1.487
		c0.207,0.202,0.566,0.535,0.93,0.438c0.204-0.056,0.208-0.17,0.212-0.475c0.019-1.146,0.167-4.761,0.945-6.993
		c1.087-3.125,1.499-3.558,1.499-3.558s2.149,0.194,4.552-0.985c2.027-0.991,3.301-2.341,3.75-4.117
		c0.258-1.013,0.108-1.973-0.065-2.61c-0.133-0.478-0.246-0.556-0.388-0.649c-0.173-0.112-0.263-0.133-0.806-0.063
		C17.799,0.105,15.608,0.439,13.145,1.252 M6.773,6.141c-0.567,0.748-1.455,2.49-1.455,2.49l0.786-3.44l2.042-0.656
		C8.146,4.535,7.339,5.394,6.773,6.141 M16.027,5.156c-2.106,1.63-4.297,1.694-4.297,1.694s1.21-1.75,2.481-2.915
		c1.727-1.583,3.355-2.2,3.355-2.2S18.047,3.595,16.027,5.156"/>
	<rect x="24.073" y="15.742" fill="#231F20" width="0.539" height="3.834"/>
	<path fill="#231F20" d="M25.575,18.864c0,0,0.311,0.319,0.789,0.319c0.228,0,0.455-0.119,0.455-0.341
		c0-0.505-1.409-0.402-1.409-1.298c0-0.5,0.444-0.782,0.992-0.782c0.601,0,0.882,0.304,0.882,0.304l-0.211,0.396
		c0,0-0.242-0.243-0.677-0.243c-0.227,0-0.452,0.098-0.452,0.337c0,0.492,1.412,0.384,1.412,1.286c0,0.454-0.39,0.798-0.992,0.798
		c-0.673,0-1.041-0.402-1.041-0.402L25.575,18.864z"/>
	<path fill="#231F20" d="M28.089,17.289h-0.358v-0.422h0.373v-0.792h0.51v0.792h0.663v0.422h-0.663v1.222
		c0,0.549,0.388,0.619,0.587,0.619c0.076,0,0.125-0.011,0.125-0.011v0.466c0,0-0.077,0.011-0.186,0.011
		c-0.352,0-1.051-0.108-1.051-1.026V17.289z"/>
	<path fill="#231F20" d="M29.911,15.742h0.53v0.539h-0.53V15.742z M29.915,16.827h0.526v2.749h-0.526V16.827z"/>
	<path fill="#231F20" d="M31.382,17.289h-0.357v-0.422H31.4v-0.792h0.507v0.792h0.663v0.422h-0.663v1.222
		c0,0.549,0.386,0.619,0.587,0.619c0.076,0,0.125-0.011,0.125-0.011v0.466c0,0-0.076,0.011-0.184,0.011
		c-0.352,0-1.053-0.108-1.053-1.026V17.289z"/>
	<path fill="#231F20" d="M33.171,16.829h0.528v1.638c0,0.381,0.075,0.686,0.514,0.686c0.559,0,0.891-0.495,0.891-1.037v-1.286h0.525
		v2.747H35.12v-0.365c0-0.114,0.009-0.201,0.009-0.201H35.12c-0.115,0.271-0.472,0.631-1.009,0.631c-0.619,0-0.94-0.327-0.94-1.053
		V16.829z"/>
	<path fill="#231F20" d="M36.568,17.289h-0.359v-0.422h0.375v-0.792h0.511v0.792h0.662v0.422h-0.662v1.222
		c0,0.549,0.384,0.619,0.586,0.619c0.076,0,0.125-0.011,0.125-0.011v0.466c0,0-0.075,0.011-0.187,0.011
		c-0.352,0-1.051-0.108-1.051-1.026V17.289z"/>
	<path fill="#231F20" d="M39.677,16.762c0.82,0,1.482,0.603,1.482,1.434c0,0.836-0.662,1.444-1.482,1.444
		c-0.819,0-1.482-0.608-1.482-1.444C38.195,17.365,38.858,16.762,39.677,16.762 M39.677,19.183c0.521,0,0.945-0.412,0.945-0.987
		c0-0.57-0.424-0.977-0.945-0.977c-0.516,0-0.945,0.406-0.945,0.977C38.732,18.771,39.161,19.183,39.677,19.183"/>
	<path fill="#231F20" d="M44.994,15.678c1.106,0,1.966,0.852,1.966,1.953c0,1.128-0.859,2.009-1.966,2.009
		c-1.105,0-1.969-0.881-1.969-2.009C43.026,16.53,43.889,15.678,44.994,15.678 M44.994,19.146c0.783,0,1.41-0.652,1.41-1.515
		c0-0.836-0.627-1.466-1.41-1.466c-0.781,0-1.416,0.63-1.416,1.466C43.578,18.494,44.213,19.146,44.994,19.146"/>
	<path fill="#231F20" d="M47.664,18.864c0,0,0.308,0.319,0.785,0.319c0.229,0,0.457-0.119,0.457-0.341
		c0-0.505-1.41-0.402-1.41-1.298c0-0.5,0.444-0.782,0.991-0.782c0.604,0,0.886,0.304,0.886,0.304l-0.213,0.396
		c0,0-0.244-0.243-0.677-0.243c-0.229,0-0.451,0.098-0.451,0.337c0,0.492,1.412,0.384,1.412,1.286c0,0.454-0.39,0.798-0.995,0.798
		c-0.672,0-1.041-0.402-1.041-0.402L47.664,18.864z"/>
	<path fill="#231F20" d="M50.061,16.829h0.485v0.232c0,0.108-0.013,0.201-0.013,0.201h0.013c0,0,0.232-0.5,0.924-0.5
		c0.734,0,1.203,0.587,1.203,1.438c0,0.875-0.527,1.439-1.243,1.439c-0.603,0-0.841-0.451-0.841-0.451h-0.013
		c0,0,0.013,0.097,0.013,0.239v1.231h-0.528V16.829z M51.348,19.189c0.434,0,0.793-0.358,0.793-0.982
		c0-0.597-0.321-0.982-0.776-0.982c-0.413,0-0.794,0.288-0.794,0.987C50.571,18.7,50.844,19.189,51.348,19.189"/>
	<path fill="#231F20" d="M54.502,16.763c0.772,0,1.187,0.574,1.187,1.285c0,0.071-0.017,0.229-0.017,0.229H53.67
		c0.027,0.603,0.455,0.906,0.945,0.906c0.471,0,0.812-0.321,0.812-0.321l0.219,0.386c0,0-0.406,0.393-1.063,0.393
		c-0.864,0-1.455-0.625-1.455-1.439C53.127,17.328,53.718,16.763,54.502,16.763 M55.151,17.882c-0.016-0.473-0.31-0.7-0.661-0.7
		c-0.4,0-0.727,0.248-0.802,0.7H55.151z"/>
	<path fill="#231F20" d="M57.393,16.762c0.635,0,0.844,0.436,0.844,0.436h0.012c0,0-0.012-0.081-0.012-0.187v-1.27h0.528v3.834h-0.5
		v-0.263c0-0.107,0.008-0.184,0.008-0.184H58.26c0,0-0.223,0.511-0.9,0.511c-0.743,0-1.209-0.588-1.209-1.439
		C56.151,17.328,56.665,16.762,57.393,16.762 M57.463,19.183c0.407,0,0.792-0.287,0.792-0.987c0-0.489-0.257-0.977-0.777-0.977
		c-0.434,0-0.792,0.357-0.792,0.981C56.686,18.798,57.006,19.183,57.463,19.183"/>
	<path fill="#231F20" d="M61.024,17.859h0.12V17.81c0-0.451-0.258-0.603-0.604-0.603c-0.426,0-0.767,0.267-0.767,0.267l-0.217-0.386
		c0,0,0.397-0.326,1.025-0.326c0.694,0,1.085,0.381,1.085,1.076v1.737h-0.489v-0.263c0-0.124,0.013-0.217,0.013-0.217h-0.013
		c0,0-0.222,0.543-0.877,0.543c-0.473,0-0.934-0.287-0.934-0.836C59.367,17.897,60.56,17.859,61.024,17.859 M60.414,19.217
		c0.444,0,0.733-0.468,0.733-0.875v-0.087h-0.136c-0.396,0-1.113,0.027-1.113,0.521C59.899,19.001,60.072,19.217,60.414,19.217"/>
	<path fill="#231F20" d="M62.422,15.742h0.525v2.99c0,0.332,0.13,0.392,0.294,0.392c0.048,0,0.091-0.005,0.091-0.005v0.466
		c0,0-0.08,0.011-0.173,0.011c-0.3,0-0.737-0.081-0.737-0.771V15.742z"/>
	<path fill="#231F20" d="M63.885,15.742h0.533v0.539h-0.533V15.742z M63.892,16.827h0.526v2.749h-0.526V16.827z"/>
	<path fill="#231F20" d="M66.427,16.763c0.775,0,1.188,0.574,1.188,1.285c0,0.071-0.018,0.229-0.018,0.229h-2.002
		c0.025,0.603,0.454,0.906,0.944,0.906c0.472,0,0.813-0.321,0.813-0.321l0.22,0.386c0,0-0.408,0.393-1.063,0.393
		c-0.863,0-1.458-0.625-1.458-1.439C65.051,17.328,65.646,16.763,66.427,16.763 M67.077,17.882c-0.017-0.473-0.311-0.7-0.662-0.7
		c-0.402,0-0.728,0.248-0.804,0.7H67.077z"/>
	<path fill="#231F20" d="M68.255,16.829h0.51v0.477c0,0.114-0.012,0.207-0.012,0.207h0.012c0.125-0.403,0.445-0.717,0.869-0.717
		c0.069,0,0.134,0.011,0.134,0.011v0.521c0,0-0.07-0.015-0.15-0.015c-0.337,0-0.646,0.237-0.772,0.644
		c-0.048,0.158-0.065,0.325-0.065,0.494v1.125h-0.524V16.829z"/>
	<path fill="#231F20" d="M71.554,16.762c0.819,0,1.481,0.603,1.481,1.434c0,0.836-0.662,1.444-1.481,1.444
		c-0.82,0-1.481-0.608-1.481-1.444C70.073,17.365,70.734,16.762,71.554,16.762 M71.554,19.183c0.522,0,0.943-0.412,0.943-0.987
		c0-0.57-0.421-0.977-0.943-0.977c-0.517,0-0.944,0.406-0.944,0.977C70.61,18.771,71.037,19.183,71.554,19.183"/>
	<polygon fill="#231F20" points="24.073,0.065 26.183,0.065 26.183,0.532 24.612,0.532 24.612,1.791 25.951,1.791 25.951,2.256 
		24.612,2.256 24.612,3.896 24.073,3.896 	"/>
	<path fill="#231F20" d="M28.611,0c1.107,0,1.963,0.853,1.963,1.953c0,1.129-0.855,2.008-1.963,2.008
		c-1.106,0-1.969-0.878-1.969-2.008C26.642,0.852,27.505,0,28.611,0 M28.611,3.467c0.782,0,1.411-0.651,1.411-1.514
		c0-0.836-0.629-1.464-1.411-1.464s-1.416,0.628-1.416,1.464C27.195,2.815,27.829,3.467,28.611,3.467"/>
	<path fill="#231F20" d="M31.359,0.065h0.531l1.703,2.49c0.141,0.207,0.322,0.553,0.322,0.553h0.011c0,0-0.041-0.341-0.041-0.553
		v-2.49h0.54v3.831h-0.528L32.189,1.41c-0.143-0.211-0.32-0.559-0.32-0.559h-0.013c0,0,0.038,0.342,0.038,0.559v2.486h-0.535V0.065z
		"/>
	<path fill="#231F20" d="M35.469,0.065h1.268c1.172,0,1.943,0.701,1.943,1.91c0,1.215-0.771,1.921-1.943,1.921h-1.268V0.065z
		 M36.699,3.429c0.862,0,1.428-0.509,1.428-1.454c0-0.939-0.572-1.442-1.428-1.442h-0.695v2.896H36.699z"/>
	<path fill="#231F20" d="M41.361,2.794h-1.442l-0.379,1.102h-0.555l1.378-3.831h0.564l1.378,3.831h-0.558L41.361,2.794z
		 M40.641,0.592c0,0-0.086,0.346-0.153,0.542L40.059,2.35h1.161l-0.423-1.216c-0.063-0.196-0.145-0.542-0.145-0.542H40.641z"/>
	<path fill="#231F20" d="M42.574,3.536l1.844-2.658c0.146-0.217,0.276-0.353,0.276-0.353V0.515c0,0-0.104,0.018-0.289,0.018H42.67
		V0.065h2.692v0.353l-1.845,2.664c-0.146,0.212-0.276,0.347-0.276,0.347V3.44c0,0,0.102-0.011,0.286-0.011h1.855v0.467h-2.809V3.536
		z"/>
	<rect x="46.166" y="0.065" fill="#231F20" width="0.538" height="3.831"/>
	<path fill="#231F20" d="M49.456,0c1.108,0,1.963,0.853,1.963,1.953c0,1.129-0.854,2.008-1.963,2.008
		c-1.107,0-1.971-0.878-1.971-2.008C47.486,0.852,48.349,0,49.456,0 M49.456,3.467c0.78,0,1.409-0.651,1.409-1.514
		c0-0.836-0.629-1.464-1.409-1.464c-0.782,0-1.415,0.628-1.415,1.464C48.041,2.815,48.674,3.467,49.456,3.467"/>
	<path fill="#231F20" d="M52.204,0.065h0.531l1.703,2.49c0.142,0.207,0.321,0.553,0.321,0.553h0.011c0,0-0.038-0.341-0.038-0.553
		v-2.49h0.536v3.831H54.74L53.033,1.41c-0.142-0.211-0.319-0.559-0.319-0.559h-0.013c0,0,0.038,0.342,0.038,0.559v2.486h-0.535
		V0.065z"/>
	<polygon fill="#231F20" points="56.312,0.065 58.537,0.065 58.537,0.532 56.85,0.532 56.85,1.73 58.222,1.73 58.222,2.197 
		56.85,2.197 56.85,3.429 58.63,3.429 58.63,3.896 56.312,3.896 	"/>
</g>
</svg>
